<?xml version="1.0" encoding="UTF-8" standalone="no"?>
<!-- Created with Inkscape (http://www.inkscape.org/) -->

<svg
   width="22.273779mm"
   height="22.680483mm"
   viewBox="0 0 22.273779 22.680483"
   version="1.1"
   id="svg1"
   inkscape:version="1.3.2 (091e20e, 2023-11-25, custom)"
   sodipodi:docname="Sample.svg"
   inkscape:export-filename="drones\drone3.svg"
   inkscape:export-xdpi="96"
   inkscape:export-ydpi="96"
   xmlns:inkscape="http://www.inkscape.org/namespaces/inkscape"
   xmlns:sodipodi="http://sodipodi.sourceforge.net/DTD/sodipodi-0.dtd"
   xmlns="http://www.w3.org/2000/svg"
   xmlns:svg="http://www.w3.org/2000/svg">
  <sodipodi:namedview
     id="namedview1"
     pagecolor="#ffffff"
     bordercolor="#000000"
     borderopacity="0.25"
     inkscape:showpageshadow="2"
     inkscape:pageopacity="0.0"
     inkscape:pagecheckerboard="false"
     inkscape:deskcolor="#d1d1d1"
     inkscape:document-units="mm"
     inkscape:zoom="1.0167041"
     inkscape:cx="-16.720696"
     inkscape:cy="448.0163"
     inkscape:window-width="1920"
     inkscape:window-height="1010"
     inkscape:window-x="1699"
     inkscape:window-y="-6"
     inkscape:window-maximized="1"
     inkscape:current-layer="layer1" />
  <defs
     id="defs1" />
  <g
     inkscape:label="Layer 1"
     inkscape:groupmode="layer"
     id="layer1"
     transform="translate(-50.599106,36.064457)">
    <path
       id="path1"
       style="fill:#bed7e9;stroke:#2f2041;stroke-width:1.3;stroke-linecap:square;stroke-linejoin:round;stroke-dasharray:none"
       d="m 60.794026,-35.412933 c -0.498744,-0.01738 -1.040443,0.118145 -1.602486,0.377754 -1.008633,0.01647 -1.821231,0.314373 -2.313554,0.931726 -0.280991,0.352352 -0.438,0.782762 -0.483174,1.270724 -0.228248,0.252086 -0.453596,0.520546 -0.675928,0.803568 -0.325162,0.153667 -0.636915,0.313258 -0.933276,0.479558 -0.485816,-0.06456 -0.940617,-0.0069 -1.346688,0.188619 -0.711547,0.342663 -1.183226,1.068522 -1.423686,2.048453 -0.616319,0.799035 -0.889919,1.620535 -0.714168,2.390552 0.1003,0.439446 0.339033,0.830876 0.692464,1.170471 0.05476,0.335469 0.124095,0.67876 0.206706,1.028878 -0.08259,0.350018 -0.151945,0.693499 -0.206706,1.028878 -0.353431,0.339595 -0.592164,0.731542 -0.692464,1.170988 -0.175751,0.770016 0.09785,1.591517 0.714168,2.390552 0.240497,0.979687 0.712255,1.705846 1.423686,2.048453 0.406084,0.19556 0.860855,0.252672 1.346688,0.188103 0.296425,0.166342 0.608036,0.32637 0.933276,0.480074 0.222332,0.283022 0.44768,0.551481 0.675928,0.803568 0.04524,0.487748 0.202282,0.918496 0.483174,1.270724 0.492406,0.617456 1.305203,0.915349 2.314071,0.931726 0.916097,0.423012 1.777685,0.507521 2.489254,0.164847 0.406058,-0.195547 0.734597,-0.515801 0.98702,-0.93586 0.314978,-0.128085 0.634496,-0.27195 0.957564,-0.430464 0.359401,0.0026 0.709556,-0.0062 1.048515,-0.02739 0.409747,0.269032 0.844756,0.414445 1.295528,0.414445 0.789737,0 1.529632,-0.449312 2.171444,-1.227832 0.901826,-0.452484 1.504783,-1.073873 1.680517,-1.843815 0.100281,-0.43936 0.05525,-0.895734 -0.115755,-1.354956 0.09623,-0.326052 0.182444,-0.665653 0.259932,-1.016992 0.226304,-0.279554 0.438168,-0.55872 0.633037,-0.837159 0.465589,-0.152629 0.850244,-0.402171 1.131197,-0.754475 0.492456,-0.617521 0.602392,-1.476069 0.393774,-2.463416 0.208479,-0.987145 0.0986,-1.845995 -0.393774,-2.463415 -0.28095,-0.3523 -0.665616,-0.60133 -1.131197,-0.75396 -0.194931,-0.278532 -0.40665,-0.558027 -0.633037,-0.837675 -0.07747,-0.351215 -0.163732,-0.691049 -0.259932,-1.016992 0.170873,-0.45908 0.216006,-0.915213 0.115755,-1.354439 -0.175734,-0.769942 -0.778691,-1.391331 -1.680517,-1.843815 -0.641812,-0.77852 -1.381707,-1.228349 -2.171444,-1.228349 -0.450552,0 -0.88544,0.145667 -1.295011,0.414445 -0.339444,-0.02127 -0.690121,-0.03004 -1.050066,-0.02739 -0.322733,-0.158322 -0.641872,-0.302512 -0.95653,-0.430465 -0.25242,-0.420041 -0.580974,-0.739802 -0.98702,-0.935344 -0.275169,-0.132514 -0.572913,-0.201951 -0.887285,-0.212906 z" />
    <circle
       style="fill:#2f2041;stroke:#bed7e9;stroke-width:0.499999;stroke-linecap:square;stroke-linejoin:round"
       id="path2"
       cx="61.736332"
       cy="-24.723734"
       r="3.1878948" />
  </g>
</svg>
