<?xml version="1.0" encoding="UTF-8" standalone="no"?>
<!-- Created with Inkscape (http://www.inkscape.org/) -->

<svg
   width="35.513519mm"
   height="8.5403967mm"
   viewBox="0 0 35.513519 8.5403967"
   version="1.1"
   id="svg1"
   inkscape:version="1.3.2 (091e20e, 2023-11-25, custom)"
   sodipodi:docname="Sample.svg"
   inkscape:export-filename="drones\drone3.svg"
   inkscape:export-xdpi="96"
   inkscape:export-ydpi="96"
   xmlns:inkscape="http://www.inkscape.org/namespaces/inkscape"
   xmlns:sodipodi="http://sodipodi.sourceforge.net/DTD/sodipodi-0.dtd"
   xmlns="http://www.w3.org/2000/svg"
   xmlns:svg="http://www.w3.org/2000/svg">
  <sodipodi:namedview
     id="namedview1"
     pagecolor="#ffffff"
     bordercolor="#000000"
     borderopacity="0.25"
     inkscape:showpageshadow="2"
     inkscape:pageopacity="0.0"
     inkscape:pagecheckerboard="false"
     inkscape:deskcolor="#d1d1d1"
     inkscape:document-units="mm"
     inkscape:zoom="1.0167041"
     inkscape:cx="-16.720696"
     inkscape:cy="448.0163"
     inkscape:window-width="1920"
     inkscape:window-height="1010"
     inkscape:window-x="1699"
     inkscape:window-y="-6"
     inkscape:window-maximized="1"
     inkscape:current-layer="layer1" />
  <defs
     id="defs1">
    <inkscape:path-effect
       effect="mirror_symmetry"
       start_point="88.665326,48.211891"
       end_point="88.665326,63.712005"
       center_point="88.665326,55.961948"
       id="path-effect20-3-5-8"
       is_visible="true"
       lpeversion="1.2"
       lpesatellites=""
       mode="free"
       discard_orig_path="false"
       fuse_paths="true"
       oposite_fuse="false"
       split_items="false"
       split_open="false"
       link_styles="false" />
    <inkscape:path-effect
       effect="mirror_symmetry"
       start_point="46.978865,35.422086"
       end_point="46.978865,78.892788"
       center_point="46.978865,57.157437"
       id="path-effect6-8-8-6"
       is_visible="true"
       lpeversion="1.2"
       lpesatellites=""
       mode="free"
       discard_orig_path="false"
       fuse_paths="true"
       oposite_fuse="false"
       split_items="false"
       split_open="false"
       link_styles="false" />
    <inkscape:path-effect
       effect="mirror_symmetry"
       start_point="46.978865,35.422086"
       end_point="46.978865,78.892788"
       center_point="46.978865,57.157437"
       id="path-effect19-7-3-3"
       is_visible="true"
       lpeversion="1.2"
       lpesatellites=""
       mode="free"
       discard_orig_path="false"
       fuse_paths="true"
       oposite_fuse="false"
       split_items="false"
       split_open="false"
       link_styles="false" />
  </defs>
  <g
     inkscape:label="Layer 1"
     inkscape:groupmode="layer"
     id="layer1"
     transform="translate(-1.9168552,-13.546436)">
    <circle
       style="fill:#2f2041;stroke:none;stroke-width:1.888;stroke-linecap:square;stroke-linejoin:round"
       id="path4-4-4-6"
       cx="19.582397"
       cy="18.605103"
       r="2.6403973"
       inkscape:export-filename="drones\drone4.svg"
       inkscape:export-xdpi="96"
       inkscape:export-ydpi="96" />
    <path
       id="rect3-7-1-3"
       style="fill:#c8024f;stroke-width:4.8323;stroke-linecap:square;stroke-linejoin:round"
       d="m 53.675781,48.210937 c -0.141369,10e-7 -0.255859,0.114491 -0.255859,0.25586 v 8.640625 c 0,0.141369 0.117202,0.226346 0.255859,0.253906 l 34.990235,6.955078 34.990234,-6.955078 c 0.13866,-0.02756 0.25391,-0.112537 0.25391,-0.253906 v -8.640625 c 0,-0.141369 -0.11254,-0.25586 -0.25391,-0.25586 H 88.666016 Z"
       inkscape:path-effect="#path-effect20-3-5-8"
       inkscape:original-d="m 53.675176,48.211891 h 69.866884 c 0.14136,0 0.25517,0.113809 0.25517,0.255178 v 14.989757 c 0,0.141369 -0.11383,0.253037 -0.25517,0.255178 L 88.746323,64.331738 53.675176,57.362004 c -0.138657,-0.02756 -0.255178,-0.113809 -0.255178,-0.255178 v -8.639757 c 0,-0.141369 0.113809,-0.255178 0.255178,-0.255178 z"
       sodipodi:nodetypes="ssssscssss"
       transform="matrix(0.37760066,0,0,0.37760066,-13.87627,-2.5261657)" />
    <circle
       style="fill:#ff585f;stroke:none;stroke-width:0.734886;stroke-linecap:square;stroke-linejoin:round"
       id="path3-2-6-6"
       cx="19.582397"
       cy="18.605103"
       r="2.1366372" />
    <g
       id="g15-0-1-8"
       transform="matrix(0.37760066,0,0,0.18241104,-16.57857,7.7126137)"
       style="fill:#2f2041">
      <path
         id="rect1-2-9-9"
         d="m 46.554687,32.707031 -4.195312,2.623047 c -0.336191,0.210153 -0.739462,0.320975 -0.716797,0.716797 l 2.216797,5.923828 2.142578,35.855469 c 0.02365,0.395763 -2.10699,0.714844 0.716797,0.714844 h 0.259766 0.261718 c 2.823788,0 0.693147,-0.319081 0.716797,-0.714844 l 2.140625,-35.855469 2.216797,-5.923828 c 0.02266,-0.395822 -0.380606,-0.506644 -0.716797,-0.716797 l -4.193359,-2.623047 h -0.425781 z m 0.423829,1.601563 0.183593,1.021484 h -0.183593 -0.183594 z"
         style="fill:#ff585f;stroke:none;stroke-width:3.31042;stroke-linecap:square;stroke-linejoin:round"
         inkscape:path-effect="#path-effect6-8-8-6"
         inkscape:original-d="m 42.359375,35.330078 c -0.336191,0.210153 -0.739462,0.320975 -0.716797,0.716797 l 2.216697,5.923142 2.142261,35.855684 c 0.02365,0.395764 -2.106993,0.714844 0.716797,0.714844 h 2.028361 l 2.485728,0.260236 c 0.394315,0.04128 0.714844,-0.318374 0.714844,-0.714844 V 36.046875 c 0,-0.39647 -0.318374,-0.716797 -0.714844,-0.716797 h -4.4375 l 0.472367,-2.622212 h -0.713058 z"
         sodipodi:nodetypes="sscsscsssscccs"
         transform="translate(11.778483)" />
      <path
         style="fill:#bed7e9;stroke:none;stroke-width:4.99999;stroke-linecap:square;stroke-linejoin:round"
         d="m 59.010251,32.912671 c 0,0 -6.71654,-1.196097 -7.176579,-0.828066 -0.460036,0.368027 -2.852229,4.968401 -2.852229,4.968401 z"
         id="path14-5-1-1" />
      <path
         style="fill:#bed7e9;stroke:none;stroke-width:4.99999;stroke-linecap:square;stroke-linejoin:round"
         d="m 58.968012,32.880141 c 0,0 6.71654,-1.196097 7.176579,-0.828066 0.460036,0.368027 2.852229,4.968401 2.852229,4.968401 z"
         id="path15-1-6-8" />
    </g>
    <path
       id="path16-3-6-5"
       d="m 46.554687,32.707031 -4.195312,2.623047 c -0.336191,0.210153 -0.739462,0.320975 -0.716797,0.716797 l 2.216797,5.923828 2.142578,35.855469 c 0.02365,0.395763 -2.10699,0.714844 0.716797,0.714844 h 0.259766 0.261718 c 2.823788,0 0.693147,-0.319081 0.716797,-0.714844 l 2.140625,-35.855469 2.216797,-5.923828 c 0.02266,-0.395822 -0.380606,-0.506644 -0.716797,-0.716797 l -4.193359,-2.623047 h -0.425781 z m 0.423829,1.601563 0.183593,1.021484 h -0.183593 -0.183594 z"
       style="fill:#ff585f;stroke:none;stroke-width:3.31042;stroke-linecap:square;stroke-linejoin:round"
       inkscape:path-effect="#path-effect19-7-3-3"
       inkscape:original-d="m 42.359375,35.330078 c -0.336191,0.210153 -0.739462,0.320975 -0.716797,0.716797 l 2.216697,5.923142 2.142261,35.855684 c 0.02365,0.395764 -2.106993,0.714844 0.716797,0.714844 h 2.028361 l 2.485728,0.260236 c 0.394315,0.04128 0.714844,-0.318374 0.714844,-0.714844 V 36.046875 c 0,-0.39647 -0.318374,-0.716797 -0.714844,-0.716797 h -4.4375 l 0.472367,-2.622212 h -0.713058 z"
       sodipodi:nodetypes="sscsscsssscccs"
       transform="matrix(0.37760066,0,0,0.18241104,15.824692,7.7600834)" />
    <path
       style="fill:#bed7e9;stroke:none;stroke-width:1.31223;stroke-linecap:square;stroke-linejoin:round"
       d="m 33.65944,13.763718 c 0,0 -2.53617,-0.218181 -2.709881,-0.151048 -0.17371,0.06713 -1.077004,0.906291 -1.077004,0.906291 z"
       id="path17-4-7-3" />
    <path
       style="fill:#bed7e9;stroke:none;stroke-width:1.31223;stroke-linecap:square;stroke-linejoin:round"
       d="m 33.64349,13.757784 c 0,0 2.53617,-0.218181 2.709881,-0.151048 0.17371,0.06713 1.077004,0.906291 1.077004,0.906291 z"
       id="path18-1-4-3" />
    <path
       style="fill:#fce4a8;stroke-width:0.104329;stroke-linecap:square;stroke-linejoin:round"
       d="m 15.166834,15.049796 4.511554,2.591743 4.319575,-3.071695 -4.319575,4.895514 z"
       id="path1" />
    <path
       style="fill:#bed7e9;stroke-width:0.1;stroke-linecap:square;stroke-linejoin:round"
       d="M 16.007381,19.962344 V 16.788088 H 8.0027296 Z"
       id="path2" />
    <path
       style="fill:#bed7e9;stroke-width:0.1;stroke-linecap:square;stroke-linejoin:round"
       d="m 23.045949,19.962344 v -3.174256 h 8.004647 z"
       id="path6" />
  </g>
</svg>
