<?xml version="1.0" encoding="UTF-8" standalone="no"?>
<!-- Created with Inkscape (http://www.inkscape.org/) -->

<svg
   width="391.17685"
   height="327.98907"
   viewBox="0 0 103.49887 86.780445"
   version="1.1"
   id="svg1"
   inkscape:version="1.3.2 (091e20e, 2023-11-25, custom)"
   sodipodi:docname="CoverArt.svg"
   inkscape:export-filename="CoverArt.png"
   inkscape:export-xdpi="96"
   inkscape:export-ydpi="96"
   xmlns:inkscape="http://www.inkscape.org/namespaces/inkscape"
   xmlns:sodipodi="http://sodipodi.sourceforge.net/DTD/sodipodi-0.dtd"
   xmlns="http://www.w3.org/2000/svg"
   xmlns:svg="http://www.w3.org/2000/svg">
  <sodipodi:namedview
     id="namedview1"
     pagecolor="#ffffff"
     bordercolor="#000000"
     borderopacity="0.25"
     inkscape:showpageshadow="2"
     inkscape:pageopacity="0.0"
     inkscape:pagecheckerboard="0"
     inkscape:deskcolor="#d1d1d1"
     inkscape:document-units="mm"
     inkscape:zoom="1.0167041"
     inkscape:cx="294.08754"
     inkscape:cy="323.10286"
     inkscape:window-width="1920"
     inkscape:window-height="1010"
     inkscape:window-x="1699"
     inkscape:window-y="-6"
     inkscape:window-maximized="1"
     inkscape:current-layer="layer1" />
  <defs
     id="defs1">
    <inkscape:path-effect
       effect="mirror_symmetry"
       start_point="106.50205,143.7109"
       end_point="106.50205,155.42152"
       center_point="106.50205,149.56621"
       id="path-effect21"
       is_visible="true"
       lpeversion="1.2"
       lpesatellites=""
       mode="free"
       discard_orig_path="false"
       fuse_paths="true"
       oposite_fuse="false"
       split_items="false"
       split_open="false"
       link_styles="false" />
    <inkscape:path-effect
       effect="mirror_symmetry"
       start_point="88.665326,48.211891"
       end_point="88.665326,63.712005"
       center_point="88.665326,55.961948"
       id="path-effect20"
       is_visible="true"
       lpeversion="1.2"
       lpesatellites=""
       mode="free"
       discard_orig_path="false"
       fuse_paths="true"
       oposite_fuse="false"
       split_items="false"
       split_open="false"
       link_styles="false" />
    <inkscape:path-effect
       effect="mirror_symmetry"
       start_point="46.978865,35.422086"
       end_point="46.978865,78.892788"
       center_point="46.978865,57.157437"
       id="path-effect6-1"
       is_visible="true"
       lpeversion="1.2"
       lpesatellites=""
       mode="free"
       discard_orig_path="false"
       fuse_paths="true"
       oposite_fuse="false"
       split_items="false"
       split_open="false"
       link_styles="false" />
    <inkscape:path-effect
       effect="mirror_symmetry"
       start_point="46.978865,35.422086"
       end_point="46.978865,78.892788"
       center_point="46.978865,57.157437"
       id="path-effect19"
       is_visible="true"
       lpeversion="1.2"
       lpesatellites=""
       mode="free"
       discard_orig_path="false"
       fuse_paths="true"
       oposite_fuse="false"
       split_items="false"
       split_open="false"
       link_styles="false" />
  </defs>
  <g
     inkscape:label="Layer 1"
     inkscape:groupmode="layer"
     id="layer1"
     transform="translate(-196.23872,-18.860364)">
    <path
       id="path19"
       style="fill:#bed7e9;stroke-width:0.1;stroke-linecap:square;stroke-linejoin:round"
       d="m 106.4375,144.17187 c -2.18849,10e-6 -1.52384,0.71207 -2.70312,2.20313 -0.75689,0.95699 -1.20118,51.88623 -1.20118,53.15039 0,3.2338 0.31119,6.11523 3.9043,6.11523 0.0218,0 0.0427,-0.002 0.0644,-0.006 0.0218,0.004 0.0446,0.006 0.0664,0.006 3.59311,0 3.90234,-2.88143 3.90234,-6.11523 0,-1.26416 -0.44428,-52.1934 -1.20117,-53.15039 -1.17929,-1.49106 -0.51268,-2.20313 -2.70117,-2.20313 -0.0218,10e-6 -0.0446,-1.9e-4 -0.0664,0 -0.0218,-1.9e-4 -0.0426,0 -0.0644,0 z"
       inkscape:path-effect="#path-effect21"
       inkscape:original-d="m 112.94257,150.02625 c 0,3.2338 -2.9128,55.61396 -6.50591,55.61396 -3.59311,0 -3.90354,-2.88175 -3.90354,-6.11555 0,-1.26416 0.44512,-52.1934 1.20201,-53.15039 1.17929,-1.49106 0.51304,-2.20334 2.70153,-2.20334 3.59312,0 6.50591,2.62152 6.50591,5.85532 z"
       sodipodi:nodetypes="ssssss"
       transform="rotate(45,301.9827,278.39242)"
       inkscape:export-filename="..\..\hexcodejam3\Art\Promo\PrimeDayArt.svg"
       inkscape:export-xdpi="96"
       inkscape:export-ydpi="96" />
    <g
       id="g14"
       transform="matrix(2.2566405,0.90450176,-0.90450176,2.2566405,325.60009,-359.51582)"
       inkscape:export-filename="PrimeDayArt.svg"
       inkscape:export-xdpi="96"
       inkscape:export-ydpi="96">
      <circle
         style="fill:#2f2041;stroke:none;stroke-width:1.888;stroke-linecap:square;stroke-linejoin:round"
         id="path4-6"
         cx="35.275257"
         cy="165.22227"
         r="2.6403973"
         inkscape:export-filename="drone.svg"
         inkscape:export-xdpi="96"
         inkscape:export-ydpi="96" />
      <path
         id="rect3"
         style="fill:#c8024f;stroke-width:4.8323;stroke-linecap:square;stroke-linejoin:round"
         d="m 53.675781,48.210937 c -0.141369,10e-7 -0.255859,0.114491 -0.255859,0.25586 v 8.640625 c 0,0.141369 0.117202,0.226346 0.255859,0.253906 l 34.990235,6.955078 34.990234,-6.955078 c 0.13866,-0.02756 0.25391,-0.112537 0.25391,-0.253906 v -8.640625 c 0,-0.141369 -0.11254,-0.25586 -0.25391,-0.25586 H 88.666016 Z"
         inkscape:path-effect="#path-effect20"
         inkscape:original-d="m 53.675176,48.211891 h 69.866884 c 0.14136,0 0.25517,0.113809 0.25517,0.255178 v 14.989757 c 0,0.141369 -0.11383,0.253037 -0.25517,0.255178 L 88.746323,64.331738 53.675176,57.362004 c -0.138657,-0.02756 -0.255178,-0.113809 -0.255178,-0.255178 v -8.639757 c 0,-0.141369 0.113809,-0.255178 0.255178,-0.255178 z"
         sodipodi:nodetypes="ssssscssss"
         transform="matrix(0.37760066,0,0,0.37760066,1.8165868,144.09101)" />
      <circle
         style="fill:#bed7e9;stroke:none;stroke-width:0.734886;stroke-linecap:square;stroke-linejoin:round"
         id="path3-6"
         cx="35.275257"
         cy="165.22227"
         r="2.1366372" />
      <circle
         style="fill:#ff585f;stroke:none;stroke-width:1.888;stroke-linecap:square;stroke-linejoin:round"
         id="path5-1"
         cx="39.911266"
         cy="164.15456"
         r="1.0596331" />
      <g
         id="g15"
         transform="matrix(0.37760066,0,0,0.18241104,-0.88571223,154.32979)"
         style="fill:#2f2041">
        <path
           id="rect1"
           d="m 46.554687,32.707031 -4.195312,2.623047 c -0.336191,0.210153 -0.739462,0.320975 -0.716797,0.716797 l 2.216797,5.923828 2.142578,35.855469 c 0.02365,0.395763 -2.10699,0.714844 0.716797,0.714844 h 0.259766 0.261718 c 2.823788,0 0.693147,-0.319081 0.716797,-0.714844 l 2.140625,-35.855469 2.216797,-5.923828 c 0.02266,-0.395822 -0.380606,-0.506644 -0.716797,-0.716797 l -4.193359,-2.623047 h -0.425781 z m 0.423829,1.601563 0.183593,1.021484 h -0.183593 -0.183594 z"
           style="fill:#ff585f;stroke:none;stroke-width:3.31042;stroke-linecap:square;stroke-linejoin:round"
           inkscape:path-effect="#path-effect6-1"
           inkscape:original-d="m 42.359375,35.330078 c -0.336191,0.210153 -0.739462,0.320975 -0.716797,0.716797 l 2.216697,5.923142 2.142261,35.855684 c 0.02365,0.395764 -2.106993,0.714844 0.716797,0.714844 h 2.028361 l 2.485728,0.260236 c 0.394315,0.04128 0.714844,-0.318374 0.714844,-0.714844 V 36.046875 c 0,-0.39647 -0.318374,-0.716797 -0.714844,-0.716797 h -4.4375 l 0.472367,-2.622212 h -0.713058 z"
           sodipodi:nodetypes="sscsscsssscccs"
           transform="translate(11.778483)" />
        <path
           style="fill:#bed7e9;stroke:none;stroke-width:4.99999;stroke-linecap:square;stroke-linejoin:round"
           d="m 59.010251,32.912671 c 0,0 -6.71654,-1.196097 -7.176579,-0.828066 -0.460036,0.368027 -2.852229,4.968401 -2.852229,4.968401 z"
           id="path14" />
        <path
           style="fill:#bed7e9;stroke:none;stroke-width:4.99999;stroke-linecap:square;stroke-linejoin:round"
           d="m 58.968012,32.880141 c 0,0 6.71654,-1.196097 7.176579,-0.828066 0.460036,0.368027 2.852229,4.968401 2.852229,4.968401 z"
           id="path15" />
      </g>
      <path
         id="path16"
         d="m 46.554687,32.707031 -4.195312,2.623047 c -0.336191,0.210153 -0.739462,0.320975 -0.716797,0.716797 l 2.216797,5.923828 2.142578,35.855469 c 0.02365,0.395763 -2.10699,0.714844 0.716797,0.714844 h 0.259766 0.261718 c 2.823788,0 0.693147,-0.319081 0.716797,-0.714844 l 2.140625,-35.855469 2.216797,-5.923828 c 0.02266,-0.395822 -0.380606,-0.506644 -0.716797,-0.716797 l -4.193359,-2.623047 h -0.425781 z m 0.423829,1.601563 0.183593,1.021484 h -0.183593 -0.183594 z"
         style="fill:#ff585f;stroke:none;stroke-width:3.31042;stroke-linecap:square;stroke-linejoin:round"
         inkscape:path-effect="#path-effect19"
         inkscape:original-d="m 42.359375,35.330078 c -0.336191,0.210153 -0.739462,0.320975 -0.716797,0.716797 l 2.216697,5.923142 2.142261,35.855684 c 0.02365,0.395764 -2.106993,0.714844 0.716797,0.714844 h 2.028361 l 2.485728,0.260236 c 0.394315,0.04128 0.714844,-0.318374 0.714844,-0.714844 V 36.046875 c 0,-0.39647 -0.318374,-0.716797 -0.714844,-0.716797 h -4.4375 l 0.472367,-2.622212 h -0.713058 z"
         sodipodi:nodetypes="sscsscsssscccs"
         transform="matrix(0.37760066,0,0,0.18241104,31.517549,154.37726)" />
      <path
         style="fill:#bed7e9;stroke:none;stroke-width:1.31223;stroke-linecap:square;stroke-linejoin:round"
         d="m 49.352299,160.38089 c 0,0 -2.53617,-0.21818 -2.70989,-0.15104 -0.17371,0.0671 -1.077,0.90629 -1.077,0.90629 z"
         id="path17" />
      <path
         style="fill:#bed7e9;stroke:none;stroke-width:1.31223;stroke-linecap:square;stroke-linejoin:round"
         d="m 49.336349,160.37496 c 0,0 2.53617,-0.21818 2.70988,-0.15105 0.17371,0.0671 1.077,0.90629 1.077,0.90629 z"
         id="path18" />
    </g>
    <g
       id="g16"
       transform="translate(176.23208,-58.730457)"
       inkscape:export-filename="PrimeDayArt.svg"
       inkscape:export-xdpi="96"
       inkscape:export-ydpi="96">
      <rect
         style="fill:#fce4a8;stroke:none;stroke-width:4.84483;stroke-linecap:square;stroke-linejoin:round"
         id="rect38"
         width="38.124619"
         height="23.42127"
         x="79.461472"
         y="103.99989"
         ry="0.69256437"
         transform="rotate(24.378042)" />
      <rect
         style="fill:#2f2041;stroke:none;stroke-width:4.99999;stroke-linecap:square;stroke-linejoin:round"
         id="rect37"
         width="38.254738"
         height="5.464963"
         x="79.461472"
         y="103.47942"
         ry="0.7156499"
         transform="rotate(24.378042)" />
      <path
         sodipodi:type="star"
         style="fill:#0a7e8b;stroke:none;stroke-width:19.0514;stroke-linecap:square;stroke-linejoin:round"
         id="path38"
         inkscape:flatsided="true"
         sodipodi:sides="5"
         sodipodi:cx="224.64304"
         sodipodi:cy="369.30481"
         sodipodi:r1="31.345278"
         sodipodi:r2="25.358864"
         sodipodi:arg1="0.87179671"
         sodipodi:arg2="1.5001152"
         inkscape:rounded="0"
         inkscape:randomized="0"
         d="m 244.81222,393.29919 -36.75657,2.60233 -13.83337,-34.15342 28.20708,-23.7103 31.26631,19.49964 z"
         transform="matrix(0.20497184,0.11230024,-0.11230024,0.20497183,37.112289,45.758217)"
         inkscape:transform-center-x="-0.44484526"
         inkscape:transform-center-y="0.26285786" />
    </g>
  </g>
</svg>
