<?xml version="1.0" encoding="UTF-8" standalone="no"?>
<!-- Created with Inkscape (http://www.inkscape.org/) -->

<svg
   width="327.47061"
   height="271.19028"
   viewBox="0 0 86.643266 71.752429"
   version="1.1"
   id="svg1"
   inkscape:version="1.3.2 (091e20e, 2023-11-25, custom)"
   sodipodi:docname="CoverArt.svg"
   inkscape:export-filename="CoverArt.png"
   inkscape:export-xdpi="96"
   inkscape:export-ydpi="96"
   xmlns:inkscape="http://www.inkscape.org/namespaces/inkscape"
   xmlns:sodipodi="http://sodipodi.sourceforge.net/DTD/sodipodi-0.dtd"
   xmlns="http://www.w3.org/2000/svg"
   xmlns:svg="http://www.w3.org/2000/svg">
  <sodipodi:namedview
     id="namedview1"
     pagecolor="#ffffff"
     bordercolor="#000000"
     borderopacity="0.25"
     inkscape:showpageshadow="2"
     inkscape:pageopacity="0.0"
     inkscape:pagecheckerboard="0"
     inkscape:deskcolor="#d1d1d1"
     inkscape:document-units="mm"
     inkscape:zoom="1.0167041"
     inkscape:cx="294.08754"
     inkscape:cy="323.10286"
     inkscape:window-width="1920"
     inkscape:window-height="1010"
     inkscape:window-x="1699"
     inkscape:window-y="-6"
     inkscape:window-maximized="1"
     inkscape:current-layer="layer1" />
  <defs
     id="defs1">
    <inkscape:path-effect
       effect="bspline"
       id="path-effect13"
       is_visible="true"
       lpeversion="1.3"
       weight="33.333333"
       steps="2"
       helper_size="0"
       apply_no_weight="true"
       apply_with_weight="true"
       only_selected="false"
       uniform="false" />
    <inkscape:path-effect
       effect="bspline"
       id="path-effect6"
       is_visible="true"
       lpeversion="1.3"
       weight="33.333333"
       steps="2"
       helper_size="0"
       apply_no_weight="true"
       apply_with_weight="true"
       only_selected="false"
       uniform="false" />
    <inkscape:path-effect
       effect="bspline"
       id="path-effect5"
       is_visible="true"
       lpeversion="1.3"
       weight="33.333333"
       steps="2"
       helper_size="0"
       apply_no_weight="true"
       apply_with_weight="true"
       only_selected="false"
       uniform="false" />
    <inkscape:path-effect
       effect="bspline"
       id="path-effect4"
       is_visible="true"
       lpeversion="1.3"
       weight="33.333333"
       steps="2"
       helper_size="0"
       apply_no_weight="true"
       apply_with_weight="true"
       only_selected="false"
       uniform="false" />
  </defs>
  <g
     inkscape:label="Layer 1"
     inkscape:groupmode="layer"
     id="layer1"
     transform="translate(-9.0651274,83.552847)">
    <g
       id="g13"
       transform="matrix(1.4015855,0,0,1.4015855,-7.0223543,-85.351678)"
       inkscape:export-filename="PrimeDayText.svg"
       inkscape:export-xdpi="96"
       inkscape:export-ydpi="96">
      <path
         id="path2"
         style="fill:#c8024f;stroke-width:0.1;stroke-linecap:square;stroke-linejoin:round"
         d="m 17.676957,1.2846761 c -0.350989,0.00362 -0.694013,0.014939 -1.02371,0.034107 -2.637578,0.1533422 -4.446947,0.7976141 -4.983675,3.8798665 -0.536728,3.0822524 0.199581,8.6023404 0.444934,12.2519644 0.245353,3.649625 -1.84e-4,5.42879 0.735872,6.01152 0.736057,0.582731 2.453406,-0.03104 3.143478,-1.917196 0.690072,-1.886156 0.352582,-5.04491 0.45992,-6.624401 0.107338,-1.579491 0.659698,-1.579522 2.147156,-1.794205 1.487457,-0.214684 3.91026,-0.64411 5.551082,-1.794206 C 25.792836,10.182029 26.651368,8.3115707 26.86606,6.6094157 27.080753,4.9072606 26.651412,3.3735174 24.703918,2.4380941 22.999862,1.6195987 20.133881,1.2593093 17.676957,1.2846761 Z m 1.414384,3.6834961 A 2.9902415,2.3001859 0 0 1 22.081856,7.268807 2.9902415,2.3001859 0 0 1 19.091341,9.568925 2.9902415,2.3001859 0 0 1 16.101343,7.268807 2.9902415,2.3001859 0 0 1 19.091341,4.9681722 Z" />
      <path
         id="path3"
         style="fill:#c8024f;stroke-width:0.1;stroke-linecap:square;stroke-linejoin:round"
         d="M 32.041782,2.2635914 C 30.983364,2.2367224 30.359535,2.8425295 29.94837,5.8576873 29.442321,9.5686508 29.258188,16.929406 29.089508,20.839719 c -0.16868,3.910312 -0.321594,4.370514 -0.33693,4.769217 -0.01534,0.398704 0.107141,0.735631 0.781864,0.996322 0.674723,0.260691 1.901157,0.444845 2.606559,0.107487 0.705402,-0.337358 0.889664,-1.1958 1.012342,-3.173966 0.122678,-1.978166 0.184016,-5.076068 0.433565,-5.89008 0.249549,-0.814013 0.687121,0.65585 1.169437,2.023132 0.482317,1.367283 1.034563,2.716732 1.693954,3.621485 0.659391,0.904752 1.426256,1.364566 2.131653,1.487247 0.705397,0.122681 1.349473,-0.09201 1.88619,-0.659391 0.536716,-0.567381 0.966002,-1.487109 0.275952,-3.357935 -0.690051,-1.870825 -2.499612,-4.692434 -3.021005,-6.455936 -0.521392,-1.763502 0.245316,-2.469231 0.797368,-3.28197 C 39.072509,10.212592 39.409793,9.2927636 39.4558,8.0813242 39.501808,6.8698848 39.25631,5.367044 37.983539,4.3089446 36.710768,3.2508452 34.411049,2.6378048 32.846901,2.3617767 32.553624,2.3100214 32.286033,2.269792 32.041782,2.2635914 Z m 1.678968,3.8090699 a 2.2541821,2.3001859 0 0 1 2.254126,2.300118 2.2541821,2.3001859 0 0 1 -2.254126,2.3001177 2.2541821,2.3001859 0 0 1 -2.254126,-2.3001177 2.2541821,2.3001859 0 0 1 2.254126,-2.300118 z"
         transform="translate(-1.2881041,-0.64405205)" />
      <path
         style="fill:#c8024f;stroke-width:0.1;stroke-linecap:square;stroke-linejoin:round"
         d="m 41.388011,6.8698883 c -0.16868,3.9256507 -0.352695,11.0408917 -0.12267,14.8898757 0.230025,3.848983 0.874064,4.431684 1.487452,4.539024 0.613388,0.107339 1.196091,-0.260684 1.671466,-1.349457 0.475375,-1.088773 0.843398,-2.898216 0.996743,-4.661709 0.153345,-1.763493 0.09201,-3.480931 0.06134,-5.244424 -0.03067,-1.763494 -0.03067,-3.572938 0.03067,-5.2904264 C 45.574351,8.0352832 45.697025,6.4098512 45.62035,5.0297283 45.543674,3.6496053 45.267658,2.5148697 44.60826,1.9628254 43.948863,1.4107811 42.906135,1.4414495 42.308085,1.8248212 41.710034,2.208193 41.556692,2.9442375 41.388011,6.8698883 Z"
         id="path4"
         inkscape:path-effect="#path-effect4"
         inkscape:original-d="m 41.403346,3.6802972 c -0.184015,7.1152418 -0.36803,14.2304828 -0.552045,21.3457248 0.644065,0.582725 1.288103,1.165427 1.932157,1.748141 0.582723,-0.368037 1.165426,-0.736059 1.748139,-1.104089 0.368038,-1.809516 0.73606,-3.618959 1.10409,-5.428439 -0.06134,-1.717506 -0.122676,-3.434944 -0.184015,-5.152416 0,-1.809515 0,-3.618959 0,-5.4284384 0.12268,-1.6254973 0.245354,-3.2509293 0.36803,-4.8763941 -0.276029,-1.1347809 -0.552045,-2.2695166 -0.828066,-3.404275 -1.042773,0.03067 -2.085501,0.061338 -3.128253,0.092007 -0.15335,0.7360742 -0.306692,1.4721189 -0.460037,2.2081787 z"
         transform="translate(0.27602231)" />
      <path
         style="fill:#c8024f;stroke-width:0.1;stroke-linecap:square;stroke-linejoin:round"
         d="m 47.88987,22.189127 c 0.138011,-3.848978 0.415132,-11.577564 0.966635,-15.564575 0.551503,-3.9870115 1.379554,-4.2936972 2.130954,-4.3550336 0.751401,-0.061336 1.42611,0.1226748 2.085503,0.8127426 0.659393,0.6900677 1.303431,1.8861401 1.717467,2.8368909 0.414035,0.9507509 0.598046,1.6561268 0.966081,2.5915475 0.368036,0.9354207 0.920069,2.1008246 1.426114,1.4414133 0.506045,-0.6594119 0.966073,-3.1435628 1.303436,-4.6923606 0.337363,-1.5487978 0.552044,-2.1621681 0.858739,-2.5762036 0.306695,-0.4140354 0.705386,-0.6287148 1.07342,-0.6440479 0.368034,-0.015333 0.705386,0.1686768 0.904737,0.8894149 0.199351,0.720738 0.260688,1.9781477 0.276022,3.388944 0.01533,1.4107963 -0.01534,2.9748912 -0.04601,4.5543685 -0.03067,1.579477 -0.06134,3.17424 -0.107345,5.152424 -0.04601,1.978183 -0.107342,4.33966 -0.138011,5.934464 -0.03067,1.594804 -0.03067,2.422854 -0.414041,2.959566 -0.383372,0.536713 -1.150087,0.782061 -1.671465,0.65938 -0.521378,-0.122682 -0.797395,-0.613379 -0.966076,-2.315545 -0.168681,-1.702166 -0.230018,-4.615677 -0.138008,-6.639852 0.09201,-2.024175 0.337359,-3.15891 0.092,-3.312248 -0.24536,-0.153338 -0.981405,0.674714 -1.594793,1.012072 -0.613388,0.337359 -1.104084,0.184017 -1.6408,-0.368037 -0.536716,-0.552054 -1.119418,-1.502778 -1.640799,-2.514871 -0.52138,-1.012092 -0.981408,-2.0854913 -1.272766,-1.288067 -0.291358,0.797424 -0.414031,3.465586 -0.398695,5.505098 0.01534,2.039513 0.168679,3.450265 0.306691,4.631037 0.138012,1.180771 0.260686,2.131496 0.214681,2.944235 -0.04601,0.812739 -0.260685,1.487446 -0.59805,2.11617 -0.337365,0.628723 -0.797394,1.211427 -1.462343,1.316385 -0.664948,0.104958 -1.534771,-0.267824 -1.953033,-0.447079 -0.418263,-0.179256 -0.418258,-0.179256 -0.280247,-4.028233 z"
         id="path5"
         inkscape:path-effect="#path-effect5"
         inkscape:original-d="m 47.751859,26.038104 c 0.276021,-7.697955 0.552043,-15.42658 0.828067,-23.0938662 0.828082,-0.3066975 1.656133,-0.6133828 2.484199,-0.9200743 0.674735,0.1840186 1.349444,0.3680298 2.024166,0.5520446 0.644064,1.1961207 1.288102,2.3921932 1.932154,3.5882901 0.18402,0.7054043 0.36803,1.4107805 0.552045,2.1161708 0.552056,1.1654509 1.10409,2.330855 1.656133,3.496282 0.460047,-2.48425 0.920075,-4.9684009 1.380111,-7.4526016 0.214689,-0.6133952 0.429369,-1.2267657 0.644055,-1.8401487 0.398705,-0.2146883 0.797395,-0.429368 1.196096,-0.644052 0.337368,0.1840185 0.674719,0.3680297 1.012082,0.5520446 0.06134,1.2574602 0.122676,2.5148699 0.184015,3.7723049 -0.03067,1.5641576 -0.06134,3.1282525 -0.09201,4.6923788 -0.03067,1.594828 -0.06134,3.189591 -0.09201,4.784387 -0.06134,2.361571 -0.122677,4.723048 -0.184015,7.084572 0,0.828084 0,1.656134 0,2.484201 -0.766744,0.245358 -1.533459,0.490706 -2.300187,0.736059 -0.276027,-0.490716 -0.552046,-0.981412 -0.828067,-1.472119 -0.06134,-2.913626 -0.122677,-5.827137 -0.184015,-8.740706 0.245359,-1.134781 0.490707,-2.269516 0.73606,-3.404275 -0.736073,0.828084 -1.47212,1.656134 -2.208178,2.484201 -0.490717,-0.153349 -0.981413,-0.306692 -1.47212,-0.460037 -0.582724,-0.950763 -1.165426,-1.901487 -1.748142,-2.852231 -0.460044,-1.073441 -0.920073,-2.1468399 -1.380112,-3.22026 -0.122676,2.668269 -0.24535,5.336431 -0.368027,8.004647 0.153347,1.410809 0.306692,2.821561 0.460036,4.232342 0.12268,0.950762 0.245354,1.901487 0.36803,2.85223 -0.214688,0.674735 -0.429368,1.349442 -0.644051,2.024164 -0.460047,0.582725 -0.920075,1.165429 -1.380112,1.748142 -0.858755,-0.398709 -1.717474,-0.797399 -2.576208,-1.10409 z" />
      <path
         style="fill:#c8024f;stroke-width:0.1;stroke-linecap:square;stroke-linejoin:round"
         d="m 70.922398,2.0855018 c -0.352695,0.030669 -0.628719,0.030669 -1.824837,0.015334 -1.196118,-0.015335 -3.312244,-0.046004 -4.477674,0.1380153 -1.16543,0.1840189 -1.38011,0.5827099 -1.410778,1.3494496 -0.03067,0.7667397 0.122675,1.9014751 0.245353,3.0822497 0.122677,1.1807746 0.214682,2.4075158 0.230016,3.5422844 0.01533,1.134769 -0.046,2.177499 -0.138012,3.511623 -0.09201,1.334123 -0.214682,2.959556 -0.245351,4.355014 -0.03067,1.395458 0.03067,2.560861 -0.03067,3.618956 -0.06134,1.058096 -0.245351,2.008821 -0.306688,2.72955 -0.06134,0.720729 0,1.211427 0.782078,1.548789 0.782078,0.337361 2.284834,0.521372 3.772303,0.674719 1.487469,0.153347 2.959558,0.276021 3.879636,0.291355 0.920078,0.01533 1.2881,-0.07667 1.564124,-0.460042 0.276025,-0.383371 0.460036,-1.058079 0.230011,-1.533453 C 72.961883,24.473971 72.317842,24.197954 71.5051,24.029273 70.692358,23.860592 69.710966,23.799255 68.821553,23.707247 67.93214,23.615238 67.13475,23.492563 66.692815,22.955591 66.250881,22.41862 66.15611,21.376142 66.216068,20.425515 c 0.05996,-0.950626 0.274637,-1.809345 0.688678,-2.254048 0.41404,-0.444704 1.02741,-0.475373 1.656134,-0.475373 0.628724,1e-6 1.272763,0.03067 1.794143,0 0.52138,-0.03067 0.92007,-0.122676 1.196093,-0.352698 0.276023,-0.230022 0.429366,-0.598044 0.506038,-1.042752 0.07667,-0.444708 0.07667,-0.966073 -0.291364,-1.364774 -0.368037,-0.398702 -1.104081,-0.674718 -1.855483,-0.8434 -0.751402,-0.168681 -1.518114,-0.230018 -2.100833,-0.291357 -0.582718,-0.06134 -0.981408,-0.122676 -1.165422,-0.383368 -0.184013,-0.260692 -0.153344,-0.72072 -0.107339,-1.48746 0.046,-0.766739 0.107342,-1.840137 0.153346,-2.7755539 0.046,-0.9354169 0.07667,-1.7327985 0.214687,-2.2235063 0.138014,-0.4907078 0.383362,-0.6747192 1.104098,-0.7667269 0.720737,-0.092008 1.91681,-0.092008 2.683542,-0.1073428 0.766732,-0.015335 1.104086,-0.046004 1.487453,-0.3833701 0.383368,-0.3373664 0.812726,-0.9814055 0.96607,-1.51812 C 73.299253,3.6189504 73.176579,3.189591 72.961892,2.8368933 72.747205,2.4841956 72.440519,2.2081786 72.072484,2.1008371 71.70445,1.9934957 71.275093,2.0548325 70.922398,2.0855018 Z"
         id="path6"
         inkscape:path-effect="#path-effect6"
         inkscape:original-d="m 70.845724,2.116171 c -0.276021,0 -0.552045,0 -0.828066,0 -2.116215,-0.03067 -4.232341,-0.061338 -6.348513,-0.092008 -0.214689,0.3987069 -0.429369,0.7973978 -0.644052,1.1960966 0.153347,1.1347812 0.306689,2.2695167 0.460037,3.4042752 0.09201,1.2267903 0.184015,2.4535315 0.276021,3.6802982 -0.06134,1.042771 -0.122677,2.085501 -0.184015,3.128252 -0.12268,1.625496 -0.245354,3.250929 -0.368028,4.876393 0.06134,1.165452 0.122674,2.330855 0.184013,3.496284 -0.184018,0.950762 -0.368028,1.901487 -0.552043,2.85223 0.06134,0.490715 0.122677,0.981413 0.184015,1.472118 1.502818,0.184019 3.005574,0.368031 4.508363,0.552044 1.472149,0.122679 2.944238,0.245353 4.416358,0.36803 0.368036,-0.09201 0.736058,-0.184014 1.104088,-0.276022 0.184018,-0.674734 0.36803,-1.349442 0.552045,-2.024163 -0.644064,-0.276028 -1.288105,-0.552045 -1.932156,-0.828067 -0.981433,-0.06134 -1.962825,-0.122677 -2.944239,-0.184015 -0.797412,-0.122679 -1.594802,-0.245354 -2.392193,-0.36803 -0.09201,-0.950764 -0.184015,-1.993494 -0.276021,-3.036245 0.214688,-0.858753 0.429368,-1.717472 0.644051,-2.576208 0.613397,-0.03067 1.226767,-0.06134 1.840148,-0.09201 0.644067,0.03067 1.288106,0.06134 1.932157,0.09201 0.398709,-0.09201 0.797399,-0.184015 1.196097,-0.276023 0.153349,-0.368037 0.306691,-0.736059 0.460036,-1.104089 0,-0.521386 0,-1.042751 0,-1.564126 -0.736074,-0.276028 -1.472118,-0.552045 -2.208178,-0.828067 -0.766744,-0.06134 -1.533456,-0.122677 -2.300184,-0.184015 -0.398709,-0.06134 -0.797399,-0.122676 -1.196097,-0.184015 0.03067,-0.460046 0.06134,-0.920074 0.09201,-1.380111 0.06134,-1.073442 0.122677,-2.14684 0.184015,-3.2202601 0.03067,-0.7974137 0.06134,-1.5947953 0.09201,-2.3921931 0.245356,-0.1840185 0.490704,-0.3680299 0.736058,-0.5520447 1.19612,0 2.392193,0 3.588289,0 0.337368,-0.03067 0.674722,-0.061338 1.012082,-0.092008 0.429374,-0.6440639 0.858732,-1.2881031 1.2881,-1.932155 C 73.299253,3.6189504 73.176579,3.1895909 73.053902,2.760223 72.747205,2.4841952 72.440519,2.2081784 72.133827,1.9321561 71.70445,1.9934956 71.275093,2.0548327 70.845724,2.116171 Z" />
      <path
         id="path8"
         style="fill:#c8024f;stroke-width:0.1;stroke-linecap:square;stroke-linejoin:round"
         d="m 24.417884,28.532298 c -0.917421,-0.01232 -1.514922,0.542919 -1.676901,3.072164 -0.199357,3.112916 0.261088,9.216193 0.460437,12.43645 0.19935,3.220257 0.137911,3.557737 0.05788,3.940328 -0.08003,0.382591 -0.178857,0.810044 0.05788,1.072286 0.236734,0.262242 0.788814,0.446686 1.892907,0.324011 1.104093,-0.122675 2.760225,-0.5523 4.00234,-1.012341 1.242115,-0.460041 2.070289,-0.950702 2.883028,-1.502751 0.81274,-0.552049 1.609741,-1.165245 2.177128,-2.054655 0.567387,-0.88941 0.905043,-2.055065 0.828374,-3.787882 -0.07667,-1.732817 -0.567611,-4.032746 -1.104326,-5.627564 C 33.459917,33.797527 32.8775,32.908116 32.187439,32.14138 31.497378,31.374644 30.699661,30.730434 29.426884,30.101711 28.154108,29.472988 26.406056,28.859823 25.1026,28.614463 c -0.244397,-0.046 -0.473,-0.07932 -0.684712,-0.08216 z m 2.823083,5.426025 c 0.241159,-0.0115 0.504872,0.08246 0.775147,0.19172 0.720731,0.29136 1.487453,0.690288 2.024166,1.104325 0.536712,0.414037 0.843299,0.843382 1.073319,1.410767 0.23002,0.567385 0.383777,1.272415 0.414445,2.039152 0.03067,0.766737 -0.06125,1.594735 -0.321944,2.254126 -0.260692,0.65939 -0.690095,1.150532 -1.180807,1.641243 -0.490711,0.490712 -1.042697,0.981265 -1.548742,1.257288 -0.506045,0.276023 -0.966073,0.337112 -1.364775,0.306441 -0.398702,-0.03067 -0.736174,-0.153119 -0.904854,-0.214457 -0.168681,-0.06134 -0.168633,-0.0614 -0.183968,-1.794206 -0.01534,-1.732805 -0.04608,-5.19858 0.275952,-6.839376 0.20127,-1.025497 0.54013,-1.337855 0.942061,-1.357023 z"
         transform="translate(-5.0604089,1.2881041)" />
      <path
         id="path10"
         style="fill:#c8024f;stroke-width:0.1;stroke-linecap:square;stroke-linejoin:round"
         d="m 36.536788,32.463652 c -0.165805,0.0062 -0.328061,0.02647 -0.485242,0.06098 -0.628724,0.13801 -1.180684,0.505878 -1.640727,1.303279 -0.460042,0.797401 -0.827869,2.02414 -1.441255,4.799707 -0.613387,2.775568 -1.472338,7.100119 -1.855701,9.338965 -0.383363,2.238847 -0.291514,2.3922 -0.06149,2.683557 0.230019,0.291358 0.598438,0.720703 1.16582,0.751376 0.567383,0.03067 1.333994,-0.337532 1.778703,-0.674895 0.44471,-0.337363 0.567,-0.644047 0.812354,-1.364774 0.245354,-0.720727 0.613866,-1.855445 0.797884,-2.821533 0.184018,-0.966088 0.183898,-1.763198 0.45992,-2.422591 0.276023,-0.659394 0.828107,-1.181092 1.180807,-1.395781 0.352699,-0.214689 0.505683,-0.122313 0.720369,0.598413 0.214686,0.720726 0.491045,2.069975 0.690397,3.41943 0.199352,1.349454 0.322065,2.698848 0.521415,3.480924 0.199351,0.782077 0.475136,0.996622 0.919841,1.165304 0.444705,0.168682 1.057985,0.291285 1.732711,0.275952 0.674726,-0.01533 1.410677,-0.168481 1.73271,-0.781865 0.322034,-0.613383 0.230008,-1.686996 0.04599,-3.266467 -0.184016,-1.579471 -0.45986,-3.664464 -0.689881,-5.274613 -0.230021,-1.61015 -0.41399,-2.744884 -0.843359,-4.048332 -0.42937,-1.303448 -1.104313,-2.775967 -1.809709,-3.757393 -0.705396,-0.981427 -1.441411,-1.471839 -2.162142,-1.7632 -0.540548,-0.218521 -1.071999,-0.32513 -1.569413,-0.306441 z m 0.86403,3.695381 a 1.4261153,2.0701673 0 0 1 1.426269,2.070158 1.4261153,2.0701673 0 0 1 -1.426269,2.070158 1.4261153,2.0701673 0 0 1 -1.425753,-2.070158 1.4261153,2.0701673 0 0 1 1.425753,-2.070158 z" />
      <path
         style="fill:#c8024f;stroke-width:0.1;stroke-linecap:square;stroke-linejoin:round"
         d="m 43.826206,34.640799 c 0.674721,1.150093 2.024164,3.450279 2.714221,5.167762 0.690058,1.717483 0.720727,2.85222 0.674722,3.956319 -0.046,1.1041 -0.168678,2.177499 -0.291356,3.603632 -0.122677,1.426134 -0.24535,3.204909 0.368045,4.048309 0.613396,0.843399 1.962814,0.751393 2.806218,-1.150131 0.843404,-1.901524 1.180758,-5.612416 1.502786,-7.728592 0.322029,-2.116176 0.628715,-2.637541 0.981414,-3.128251 0.352699,-0.490711 0.751389,-0.950739 1.410786,-1.962836 0.659396,-1.012098 1.579452,-2.576193 1.34942,-3.465601 -0.230033,-0.889407 -1.610116,-1.104086 -2.637539,-0.552028 -1.027424,0.552058 -1.702131,1.870805 -2.177506,2.74488 -0.475375,0.874074 -0.751391,1.303432 -1.671482,0.521349 -0.92009,-0.782082 -2.484184,-2.775536 -3.526939,-3.710944 -1.042756,-0.935408 -1.564123,-0.812734 -1.840146,-0.552042 -0.276023,0.260691 -0.306692,0.659381 -0.322027,0.858732 -0.01534,0.19935 -0.01534,0.19935 0.659383,1.349442 z"
         id="path12"
         inkscape:path-effect="#path-effect13"
         inkscape:original-d="m 43.151485,33.490707 c 1.349444,2.300184 2.698885,4.600371 4.048329,6.900558 0.03067,1.134779 0.06134,2.269516 0.09201,3.404274 -0.122679,1.073441 -0.245353,2.14684 -0.36803,3.22026 -0.122677,1.778847 -0.245351,3.557622 -0.368027,5.336431 1.349467,-0.09201 2.698885,-0.184015 4.048326,-0.276024 0.337367,-3.71104 0.674722,-7.421932 1.012081,-11.132899 0.306697,-0.521385 0.613384,-1.042749 0.920075,-1.564126 0.398706,-0.460045 0.797396,-0.920073 1.196097,-1.380112 0.920091,-1.564156 1.840148,-3.128251 2.760223,-4.692378 -1.38014,-0.214688 -2.760223,-0.429368 -4.140335,-0.644051 -0.674735,1.3188 -1.349443,2.637547 -2.024163,3.95632 -0.276029,0.429376 -0.552045,0.858734 -0.828069,1.288103 -1.564156,-1.993535 -3.12825,-3.986988 -4.692377,-5.980483 -0.521385,0.122679 -1.042752,0.245353 -1.564127,0.36803 -0.03067,0.398706 -0.06134,0.797396 -0.09201,1.196097 z"
         transform="translate(-0.46003718,0.55204461)" />
    </g>
  </g>
</svg>
